<?xml version="1.0" encoding="UTF-8" standalone="no"?>
<!-- Created with Inkscape (http://www.inkscape.org/) -->

<svg
   xmlns:dc="http://purl.org/dc/elements/1.1/"
   xmlns:cc="http://creativecommons.org/ns#"
   xmlns:rdf="http://www.w3.org/1999/02/22-rdf-syntax-ns#"
   xmlns:svg="http://www.w3.org/2000/svg"
   xmlns="http://www.w3.org/2000/svg"
   xmlns:xlink="http://www.w3.org/1999/xlink"
   xmlns:sodipodi="http://sodipodi.sourceforge.net/DTD/sodipodi-0.dtd"
   xmlns:inkscape="http://www.inkscape.org/namespaces/inkscape"
   width="60"
   height="60"
   id="svg2"
   version="1.1"
   inkscape:version="0.48.5 r10040"
   sodipodi:docname="Nouveau document 1">
  <defs
     id="defs4">
    <linearGradient
       id="linearGradient3811">
      <stop
         style="stop-color:#cccccc;stop-opacity:1;"
         offset="0"
         id="stop3813" />
      <stop
         style="stop-color:#ffffff;stop-opacity:1;"
         offset="1"
         id="stop3815" />
    </linearGradient>
    <linearGradient
       inkscape:collect="always"
       xlink:href="#linearGradient3811"
       id="linearGradient3817"
       x1="290.0856"
       y1="733.72467"
       x2="280.18008"
       y2="71.891502"
       gradientUnits="userSpaceOnUse"
       gradientTransform="translate(-3.4623109,0)" />
    <linearGradient
       inkscape:collect="always"
       xlink:href="#linearGradient3811-8"
       id="linearGradient3817-2"
       x1="290.0856"
       y1="733.72467"
       x2="280.18008"
       y2="71.891502"
       gradientUnits="userSpaceOnUse" />
    <linearGradient
       id="linearGradient3811-8">
      <stop
         style="stop-color:#cccccc;stop-opacity:1;"
         offset="0"
         id="stop3813-3" />
      <stop
         style="stop-color:#ffffff;stop-opacity:1;"
         offset="1"
         id="stop3815-8" />
    </linearGradient>
  </defs>
  <sodipodi:namedview
     id="base"
     pagecolor="#ffffff"
     bordercolor="#666666"
     borderopacity="1.0"
     inkscape:pageopacity="0.0"
     inkscape:pageshadow="2"
     inkscape:zoom="5.6"
     inkscape:cx="12.407287"
     inkscape:cy="30.937944"
     inkscape:document-units="px"
     inkscape:current-layer="layer1-1"
     showgrid="false"
     inkscape:showpageshadow="false"
     inkscape:window-width="1366"
     inkscape:window-height="702"
     inkscape:window-x="0"
     inkscape:window-y="27"
     inkscape:window-maximized="1" />
  <metadata
     id="metadata7">
    <rdf:RDF>
      <cc:Work
         rdf:about="">
        <dc:format>image/svg+xml</dc:format>
        <dc:type
           rdf:resource="http://purl.org/dc/dcmitype/StillImage" />
        <dc:title></dc:title>
      </cc:Work>
    </rdf:RDF>
  </metadata>
  <g
     inkscape:label="Calque 1"
     inkscape:groupmode="layer"
     id="layer1"
     transform="translate(0,-992.36218)">
    <path
       sodipodi:type="arc"
       style="fill:#1768ff;fill-opacity:1;stroke:none"
       id="path2985"
       sodipodi:cx="30.089285"
       sodipodi:cy="29.732143"
       sodipodi:rx="27.399302"
       sodipodi:ry="27.399302"
       d="m 57.488586,29.732143 a 27.399302,27.399302 0 1 1 -54.7986026,0 27.399302,27.399302 0 1 1 54.7986026,0 z"
       transform="matrix(1.0584211,0,0,1.0584211,-1.8471352,990.89305)" />
    <g
       transform="matrix(0.07096091,0,0,0.07096091,9.6552597,992.08467)"
       inkscape:label="Layer 1"
       id="layer1-1">
      <path
         d="m 148.13769,714.59466 c 19.59,-4.1 37.91,-7.5 40.7,-7.56999 2.8,-0.0606 7.56,-1.14007 10.58,-2.41001 6.34,-2.64 10.87,-1.09003 17.52,6.03 4.77,5.1 10.66001,5.2 28.98001,0.46998 10.03,-2.59001 15.48999,-3.24 20.27999,-2.41001 10.91,1.89 22.90001,2.42001 26.31,1.15994 1.85,-0.67995 4.02,-3.68 5.13,-7.10001 1.06002,-3.24999 5.03,-12.12999 8.82,-19.74 11.79,-23.59 18.89,-32.98 13.59,-17.96999 -1.29001,3.65 -2.34001,10.89999 -2.33,16.11999 0.01,13.61 3,17.67001 17.22,23.28 6.27999,2.48 15.48999,7.25001 20.47,10.61001 10.58,7.13 11.51999,7.09999 30.44,-1.09004 23.79,-10.29999 31.57,-12.90999 46.46,-15.61 8.08999,-1.46999 15.93,-3.3 17.42,-4.07999 3.91,-2.04 3.39,-7.19 -2.71,-26.75 -3.98,-12.76001 -6.85001,-19.02 -10.81,-23.66001 -5.17,-6.02999 -9.35,-14.10999 -8,-15.45999 0.35005,-0.35005 1.34003,1.32002 2.2,3.7 0.86005,2.39 5.83,9.22 11.05,15.18 9.06,10.34 15.27,21.21 22.01,38.57 7.16999,18.45999 9.46999,21.78999 15.36,22.29 5.3,0.43996 31.04,-7.52 35.16,-10.88 2.81,-2.29 2.42,-7.97 -1.87,-26.96 -5.43999,-24.09 -9.72,-37.11 -13.67,-41.53001 -4.76,-5.35 -41.61,-31.81999 -44.28,-31.81999 -2.32,0 -12.74,7.87 -22.07,16.66 -6.71999,6.33 -8.88,4.61999 -3.72,-2.97 4.28,-6.30001 19.41001,-39.32 19.41001,-42.36 0,-2.22 -18.7,-18.56001 -24.29001,-21.23 -2.65,-1.25999 -5.52,-0.74999 -13.25,2.33999 -9.68001,3.87001 -10.05,3.90001 -18.68999,1.50001 -4.84001,-1.35004 -8.81001,-3.28 -8.81001,-4.29001 0,-1.02 2.04,-10.13999 4.53999,-20.26999 2.49001,-10.13 7.77001,-33.06 11.72,-50.94 3.96002,-17.89001 9.63001,-41.93 12.62001,-53.43 2.99,-11.5 8.53001,-33.02001 12.31999,-47.83001 3.79001,-14.80999 7.22001,-27.45999 7.62002,-28.10999 0.77,-1.24999 13.15,-42.45001 16.14999,-53.76 1.04,-3.92 3.25,-7.57001 5.46999,-9.03 5.44001,-3.56 7.57002,-11.62 6.40001,-24.22001 -0.88007,-9.45999 -0.38994,-12.61999 4.21999,-27.23999 9.27001,-29.39 9.77,-32.21 6.41001,-35.93 -2,-2.2 -4.4,-3.07 -7.64001,-2.76 -5.19999,0.51 -6.39998,3.18 -15.53999,34.53999 -5.7,13.61 -5.35,18.02001 -17.43999,18.09001 -3.17002,0.36005 -5.07001,2.06999 -7.45001,6.68 -4.23999,8.22999 -9.24,8.96 -15.25,2.21999 -4.03001,-4.53 -4.95001,-4.84999 -12.32001,-4.22999 -13.33999,2.40999 -19.70999,8.95 -33.03999,-3.93001 -2.59,-1.90999 -8.14,-5.58999 -9.98,-9.19 -1.83,-3.59999 -7.67,-11.07999 -12.97,-16.60999 -16.39,-17.13001 -13.71,-19.35 0.10992,-19.35 17.28999,-1.76 13.3,-8.78 15.79,-16.96 0.97008,-3.16988 8.41008,-2.98988 8.00008,-4.99987 -0.79,-10.81002 1.41,-17.48001 6.49,-21.02002 2.9,-8.50999 0.24,-10.51999 7.33,-12.84999 6.44,-3.69 -7.64001,-18.17 -18.64001,-21.47001 -10.82999,-3.25 -12.41999,-8.59001 -12.41999,-9.42001 0,-0.83001 -1.76,-3.89001 -3.91,-6.80001 -2.14001,-2.91001 1.06002,-12.810015 0.18997,-16.032015 -0.85997,-3.218 -3.10997,-6.839 -4.99997,-8.047 -4.28,-2.745 -15.83001,-7.857 -45.73999,-16.435 l -23.05,-6.612 -11.02001,2.65 c -24.68,5.937 -22.05,4.114 -26.58,18.407 -4.49,14.169 -6.82,38.829035 -4.13,43.849045 1.48,2.76 1.13993,2.96 -4.23,2.44 -3.76999,-0.35 -8.06,0.57999 -12.1,2.64 -5.62,2.87 -6.76,4.5 -11.18,16.02 -10.59,27.6 -47.28,137.00001 -48.7,145.22 -0.77,4.42001 0.15,7.42 4.99,16.26001 5.54,10.11999 6.54,11.08 14.86,14.40999 4.91,1.97 12.32,3.98001 16.47,4.47001 l 7.55,0.88992 -3.6,4.83 c -1.98,2.65001 -5.25,9.7 -7.28,15.66 -3.13,9.24001 -3.7,14.06 -3.85,32.53 8.41,21.71001 6.41,42.74001 5.55,66.89001 l -1.33,19.98999 c -1.66,15.66 -5.38,27.16001 -14.45,52.49 -4.24,9.75 -5.78,16.01001 -7.22,29.42 -1.00999,9.37 -3.02,22.87 -4.47,30.00001 -1.59,9.75 -3.82,14.27 -6.61,16.99 -2.65,2.48999 -17.05,23.48999 -16.87,29.8 0.18999,6.73 0.51,6.6 8.51,14.32 5.87,5.68 13.75,10.32 14.96,10.32 1.21001,0 3.92,2.63 6.02,5.85 l 3.83,5.84999 -6.68,3.46001 c -6.2,3.21999 -7.01,3.31 -11.22,1.13005 -3.31,-1.70999 -9.53,-2.34999 -22.98,-2.34999 -16.96,0 -19.36,-0.37007 -29.716004,-4.65001 -14.444997,-5.95 -17.475997,-5.9 -22.224997,0.39007 -9.509,12.60001 -14.739,24.85 -15.836,37.10999 -1.037,11.57001 -0.957,11.98001 2.623,13.50001 10,4.22 37.493997,10.93001 44.184001,10.77 4.13,-0.10005 23.54,-3.53 43.13,-7.63 z m 86.86,-54.93 c -4.18,-1.26999 -9.56999,-2.3 -11.97999,-2.3 -3.47001,0 -4.81,-1.04001 -6.48001,-5.04 -2.87999,-6.88 -6.04999,-9.14999 -14.02999,-10.05 l -6.81001,-0.75999 -2.66,-11.05 c -1.47,-6.07 -3.24,-12.14001 -3.95,-13.48 -2.07,-3.94 11.56,-52.52 18.65,-66.45001 1.52001,-3 5.63,-13.05 9.13,-22.34999 3.51,-9.32001 8.77,-19.99001 11.73001,-23.79 5.86999,-7.53001 7.06999,-10.70001 10.9,-28.67001 4.32,-13.32 10.69,-24.89999 15.37,-38.22 5.45999,-17.6 15.07,-21.56999 16.63999,-21.49999 24.57,1.64999 39.15,6.99 45.01999,9.22 1.93001,0.99999 3.71,1.97999 3.95001,2.19 0.24999,0.19997 -0.92995,2.72 -2.62001,5.58999 -4.99999,8.51001 -20.03,46 -22,49.58 l -6.15999,7.29 -5.99,7.35 c -9.66,15.24 -9.97999,23.13001 -1.31002,32.53 7.09999,7.7 13.05999,11.41 18.58999,11.56001 2.29,0.0705 6.38001,3.22999 11.49,8.90999 l 7.92,8.8 -5.6,8.43001 c -5.34,8.03 -6.20001,8.62 -17.99,12.38999 -6.81999,2.18 -13.25999,4.52001 -14.33,5.21001 -1.37005,0.88992 -1.92999,6.76 -1.92999,20.27999 v 19.02001 l -9.42001,2.84999 c -9.34999,2.83 -9.44999,2.92001 -14.92,13.78 -4.37999,8.7 -12.28999,21.10001 -13.4,21.01 -0.10992,-0.01 -3.63,-1.06002 -7.81,-2.33 z m 125.83,-119.49 c -0.82003,-0.99998 -4.17,-2.26999 -7.45,-2.82 -7.61001,-1.29001 -9.09001,-3.15 -16.21,-20.42999 l -5.86,-14.22 3.9,-6.68 c 2.14,-3.68 6.68,-11.56 10.08,-17.52 3.39,-5.97001 10.53,-17.46001 15.85,-25.56 16.81001,-25.56001 24.71,-41.71001 24.66999,-50.45001 -0.0296,-8.45 -4.66999,-20.30999 -8.50999,-21.78 -33.41,-14.17999 -46.24001,-23.43 -73.01,-34.07999 -5.82001,-1.48001 -11.16999,-3.18 -11.88999,-3.78001 -0.71998,-0.59004 2.18999,-6.22 6.46999,-12.49999 5.24,-7.68001 7.19,-15.27 10.33,-21.56 3.25,-6.48001 3.48,-6.65 7.16,-8.9 2.62,-1.60001 5.23,-1.51 8.14,-2.47001 4.15,-1.37005 8.8,-0.45997 16.58,1.38006 5.45999,1.28 14.01,2.35 18.98999,2.36 7.81001,0.0197 9.92001,0.69996 15.21001,4.88 5.79,4.59 6.68,4.81 15.73,3.97 13.2,-1.23998 14.59999,-2 18.79001,-10.28 2.75999,-5.43999 5.27999,-7.98 10.04999,-10.13 11.46,-5.17 11.46,-5.22 -4.66,54.94 -1.48,5.54 -5.56,21.22 -9.05,34.85 -3.50001,13.62001 -7.74,28.26 -9.44,32.52 -6.31,15.8 -22.98,82.08 -29.73,118.23 -1.97,10.53001 -3.82,17.48999 -4.11001,15.49001 -0.30002,-2.00001 -1.20996,-4.46001 -2.02999,-5.46001 z"
         style="fill:#4d4d4d;fill-opacity:1;stroke:none"
         sodipodi:nodetypes="cssssssssssssssssssssssssssssssssssssssssssssccssccsscsccczsssscccsssssssscccsccccsccssscccsssssssccsscccssssccccsscccsscccsscccssccscccsssccssssssssssssssssc"
         id="path3239-4"
         inkscape:connector-curvature="0" />
      <path
         d="m 148.13769,722.18 c 19.59,-4.1 37.91,-7.5 40.7,-7.57 2.8,-0.06 7.56,-1.14 10.58,-2.41 6.34,-2.64 10.87,-1.09 17.52,6.03 4.77,5.1 10.66,5.2 28.98,0.47 10.03,-2.59 15.49,-3.24 20.28,-2.41 10.91,1.89 22.9,2.42 26.31,1.16 1.85,-0.68 4.02,-3.68 5.13,-7.1 1.06,-3.25 5.03,-12.13 8.82,-19.74 11.79,-23.59 18.89,-32.98 13.59,-17.97 -1.29,3.65 -2.34,10.9 -2.33,16.12 0.01,13.61 3,17.67 17.22,23.28 6.28,2.48 15.49,7.25 20.47,10.61 10.58,7.13 11.52,7.1 30.44,-1.09 23.79,-10.3 31.57,-12.91 46.46,-15.61 8.09,-1.47 15.93,-3.3 17.42,-4.08 3.91,-2.04 3.39,-7.19 -2.71,-26.75 -3.98,-12.76 -6.85,-19.02 -10.81,-23.66 -5.17,-6.03 -9.35,-14.11 -8,-15.46 0.35,-0.35 1.34,1.32 2.2,3.7 0.86,2.39 5.83,9.22 11.05,15.18 9.06,10.34 15.27,21.21 22.01,38.57 7.17,18.46 9.47,21.79 15.36,22.29 5.3,0.44 31.04,-7.52 35.16,-10.88 2.81,-2.29 2.42,-7.97 -1.87,-26.96 -5.44,-24.09 -9.72,-37.11 -13.67,-41.53 -4.76,-5.35 -41.61,-31.82 -44.28,-31.82 -2.32,0 -12.74,7.87 -22.07,16.66 -6.72,6.33 -8.88,4.62 -3.72,-2.97 4.28,-6.3 19.41,-39.32 19.41,-42.36 0,-2.22 -18.7,-18.56 -24.29,-21.23 -2.65,-1.26 -5.52,-0.75 -13.25,2.34 -9.68,3.87 -10.05,3.9 -18.69,1.5 -4.84,-1.35 -8.81,-3.28 -8.81,-4.29 0,-1.02 2.04,-10.14 4.54,-20.27 2.49,-10.13 7.77,-33.06 11.72,-50.94 3.96,-17.89 9.63,-41.93 12.62,-53.43 2.99,-11.5 8.53,-33.02 12.32,-47.83 3.79,-14.81 7.22,-27.46 7.62,-28.11 0.77,-1.25 13.15,-42.45 16.15,-53.76 1.04,-3.92 3.25,-7.57 5.47,-9.03 5.44,-3.56 7.57,-11.62 6.4,-24.22 -0.88,-9.46 -0.39,-12.62 4.22,-27.24 9.27,-29.39 9.77,-32.21 6.41,-35.93 -2,-2.2 -4.4,-3.07 -7.64,-2.76 -5.2,0.51 -6.4,3.18 -15.54,34.54 -5.7,13.61 -5.35,18.02 -17.44,18.09 -3.17,0.36 -5.07,2.07 -7.45,6.68 -4.24,8.23 -9.24,8.96 -15.25,2.22 -4.03,-4.53 -4.95,-4.85 -12.32,-4.23 -13.34,2.41 -19.71,8.95 -33.04,-3.93 -2.59,-1.91 -8.14,-5.59 -9.98,-9.19 -1.83,-3.6 -7.67,-11.08 -12.97,-16.61 -16.39,-17.13 -13.71,-19.35 0.11,-19.35 17.29,-1.76 13.3,-8.78 15.79,-16.96 0.97,-3.17 8.41,-2.99 8,-5 -0.79,-10.81 1.41,-17.48 6.49,-21.02 2.9,-8.51 0.24,-10.52 7.33,-12.85 6.44,-3.69 -7.64,-18.17 -18.64,-21.47 -10.83,-3.25 -12.42,-8.59 -12.42,-9.42 0,-0.83 -1.76,-3.89 -3.91,-6.8 -2.14,-2.91 1.06,-12.81 0.19,-16.032 -0.86,-3.218 -3.11,-6.839 -5,-8.047 -4.28,-2.745 -15.83,-7.857 -45.74,-16.435 l -23.05,-6.612 -11.02,2.65 c -24.68,5.937 -22.05,4.114 -26.58,18.407 -4.49,14.169 -6.82,38.829 -4.13,43.849 1.48,2.76 1.14,2.96 -4.23,2.44 -3.77,-0.35 -8.06,0.58 -12.1,2.64 -5.62,2.87 -6.76,4.5 -11.18,16.02 -10.59,27.6 -47.28,137 -48.7,145.22 -0.77,4.42 0.15,7.42 4.99,16.26 5.54,10.12 6.54,11.08 14.86,14.41 4.91,1.97 12.32,3.98 16.47,4.47 l 7.55,0.89 -3.6,4.83 c -1.98,2.65 -5.25,9.7 -7.28,15.66 -3.13,9.24 -3.7,14.06 -3.85,32.53 8.41,21.71 6.41,42.74 5.55,66.89 l -1.33,19.99 c -1.66,15.66 -5.38,27.16 -14.45,52.49 -4.24,9.75 -5.78,16.01 -7.22,29.42 -1.01,9.37 -3.02,22.87 -4.47,30 -1.59,9.75 -3.82,14.27 -6.61,16.99 -2.65,2.49 -17.05,23.49 -16.87,29.8 0.19,6.73 0.51,6.6 8.51,14.32 5.87,5.68 13.75,10.32 14.96,10.32 1.21,0 3.92,2.63 6.02,5.85 l 3.83,5.85 -6.68,3.46 c -6.2,3.22 -7.01,3.31 -11.22,1.13 -3.31,-1.71 -9.53,-2.35 -22.98,-2.35 -16.96,0 -19.36,-0.37 -29.716001,-4.65 -14.445,-5.95 -17.476,-5.9 -22.225,0.39 -9.509,12.6 -14.739,24.85 -15.836,37.11 -1.037,11.57 -0.957,11.98 2.623,13.5 10,4.22 37.494,10.93 44.184001,10.77 4.13,-0.1 23.54,-3.53 43.13,-7.63 z m 86.86,-54.93 c -4.18,-1.27 -9.57,-2.3 -11.98,-2.3 -3.47,0 -4.81,-1.04 -6.48,-5.04 -2.88,-6.88 -6.05,-9.15 -14.03,-10.05 l -6.81,-0.76 -2.66,-11.05 c -1.47,-6.07 -3.24,-12.14 -3.95,-13.48 -2.07,-3.94 11.56,-52.52 18.65,-66.45 1.52,-3 5.63,-13.05 9.13,-22.35 3.51,-9.32 8.77,-19.99 11.73,-23.79 5.87,-7.53 7.07,-10.7 10.9,-28.67 4.32,-13.32 10.69,-24.9 15.37,-38.22 5.46,-17.6 15.07,-21.57 16.64,-21.5 24.57,1.65 39.15,6.99 45.02,9.22 1.93,1 3.71,1.98 3.95,2.19 0.25,0.2 -0.93,2.72 -2.62,5.59 -5,8.51 -20.03,46 -22,49.58 l -6.16,7.29 -5.99,7.35 c -9.66,15.24 -9.98,23.13 -1.31,32.53 7.1,7.7 13.06,11.41 18.59,11.56 2.29,0.07 6.38,3.23 11.49,8.91 l 7.92,8.8 -5.6,8.43 c -5.34,8.03 -6.2,8.62 -17.99,12.39 -6.82,2.18 -13.26,4.52 -14.33,5.21 -1.37,0.89 -1.93,6.76 -1.93,20.28 v 19.02 l -9.42,2.85 c -9.35,2.83 -9.45,2.92 -14.92,13.78 -4.38,8.7 -12.29,21.1 -13.4,21.01 -0.11,-0.01 -3.63,-1.06 -7.81,-2.33 z m 125.83,-119.49 c -0.82,-1 -4.17,-2.27 -7.45,-2.82 -7.61,-1.29 -9.09,-3.15 -16.21,-20.43 l -5.86,-14.22 3.9,-6.68 c 2.14,-3.68 6.68,-11.56 10.08,-17.52 3.39,-5.97 10.53,-17.46 15.85,-25.56 16.81,-25.56 24.71,-41.71 24.67,-50.45 -0.03,-8.45 -4.67,-20.31 -8.51,-21.78 -33.41,-14.18 -46.24,-23.43 -73.01,-34.08 -5.82,-1.48 -11.17,-3.18 -11.89,-3.78 -0.72,-0.59 2.19,-6.22 6.47,-12.5 5.24,-7.68 7.19,-15.27 10.33,-21.56 3.25,-6.48 3.48,-6.65 7.16,-8.9 2.62,-1.6 5.23,-1.51 8.14,-2.47 4.15,-1.37 8.8,-0.46 16.58,1.38 5.46,1.28 14.01,2.35 18.99,2.36 7.81,0.02 9.92,0.7 15.21,4.88 5.79,4.59 6.68,4.81 15.73,3.97 13.2,-1.24 14.6,-2 18.79,-10.28 2.76,-5.44 5.28,-7.98 10.05,-10.13 11.46,-5.17 11.46,-5.22 -4.66,54.94 -1.48,5.54 -5.56,21.22 -9.05,34.85 -3.5,13.62 -7.74,28.26 -9.44,32.52 -6.31,15.8 -22.98,82.08 -29.73,118.23 -1.97,10.53 -3.82,17.49 -4.11,15.49 -0.3,-2 -1.21,-4.46 -2.03,-5.46 z"
         style="fill:url(#linearGradient3817);fill-opacity:1;stroke:none"
         sodipodi:nodetypes="cssssssssssssssssssssssssssssssssssssssssssssccssccsscsccczsssscccsssssssscccsccccsccssscccsssssssccsscccssssccccsscccsscccsscccssccscccsssccssssssssssssssssc"
         id="path3239"
         inkscape:connector-curvature="0" />
    </g>
  </g>
</svg>
