<svg xmlns="http://www.w3.org/2000/svg" xml:space="preserve" width="16" height="16"><path fill="#558428" d="M11.7 5.5c0-.2-.1-.3-.2-.4l-.8-.8c-.1-.1-.3-.2-.4-.2s-.3.1-.4.2L6.2 8 4.1 6c-.1-.2-.2-.2-.4-.2-.1 0-.3 0-.4.2l-.8.8c-.1.1-.2.2-.2.4s.1.3.2.4l3.3 3.3c.1.1.2.2.4.2s.3-.1.4-.2l5-5c.1-.1.1-.2.1-.4zM14.1 7c0 1.3-.3 2.5-.9 3.5-.6 1.1-1.5 1.9-2.6 2.6-1.1.6-2.3.9-3.5.9-1.3 0-2.5-.3-3.5-.9-1.1-.6-1.9-1.5-2.6-2.6-.7-1-1-2.2-1-3.5 0-1.3.3-2.5.9-3.5.6-1.1 1.5-1.9 2.6-2.6C4.6.3 5.8 0 7 0c1.3 0 2.4.3 3.5.9 1.1.6 1.9 1.5 2.6 2.6.6 1.1 1 2.3 1 3.5z"/></svg>