<svg xmlns="http://www.w3.org/2000/svg" xml:space="preserve" width="16" height="16"><path fill="#C8361C" d="M7.9 11.5V9.9c0-.1 0-.1-.1-.2 0-.1-.1-.1-.2-.1H6.2c-.1 0-.1 0-.2.1v1.8c0 .1 0 .1.1.2 0 .1.1.1.2.1h1.5c.1 0 .1 0 .2-.1-.1-.1-.1-.1-.1-.2zm0-3.1L8 4.6c0-.1 0-.1-.1-.2 0-.1 0-.1-.1-.1H6.1c-.1 0-.1 0-.2.1-.1 0-.1.1-.1.2L6 8.4v.1c.1 0 .1.1.2.1h1.4c.1 0 .1 0 .2-.1.1 0 .1-.1.1-.1zM7.8.6l5.9 11.8c.2.4.2.7 0 1.1-.1.2-.2.3-.4.4-.2.1-.3.1-.5.1H1c-.2 0-.3 0-.5-.1s-.3-.2-.4-.4c-.1-.5-.1-.8 0-1.2L6.1.6c.1-.2.2-.3.4-.4.1-.1.3-.2.4-.2.2 0 .3.1.5.2s.3.2.4.4z"/></svg>